<?xml version="1.0" encoding="UTF-8" standalone="no"?>
<!DOCTYPE svg PUBLIC "-//W3C//DTD SVG 1.1//EN" "http://www.w3.org/Graphics/SVG/1.1/DTD/svg11.dtd">
<!-- Created with Vectornator (http://vectornator.io/) -->
<svg height="100%" stroke-miterlimit="10" style="fill-rule:nonzero;clip-rule:evenodd;stroke-linecap:round;stroke-linejoin:round;" version="1.1" viewBox="0 0 1920 1080" width="100%" xml:space="preserve" xmlns="http://www.w3.org/2000/svg" xmlns:vectornator="http://vectornator.io" xmlns:xlink="http://www.w3.org/1999/xlink">
<defs/>
<g id="Слой-1" vectornator:layerName="Слой 1">
<path d="M735.103 719.501L1047.38 719.501C1068.87 719.501 1085.33 713.818 1096.75 702.453C1108.18 691.087 1113.89 674.722 1113.89 653.357L1113.89 479.146C1113.89 457.905 1108.18 441.571 1096.75 430.144C1085.33 418.716 1068.87 413.002 1047.38 413.002L735.103 413.002C713.738 413.002 697.31 418.716 685.821 430.144C674.331 441.571 668.586 457.905 668.586 479.146L668.586 653.357C668.586 674.722 674.331 691.087 685.821 702.453C697.31 713.818 713.738 719.501 735.103 719.501ZM740.879 669.567C733.55 669.567 727.991 667.735 724.203 664.071C720.414 660.406 718.52 654.723 718.52 647.022L718.52 485.481C718.52 477.78 720.414 472.097 724.203 468.433C727.991 464.768 733.55 462.936 740.879 462.936L1041.6 462.936C1048.93 462.936 1054.49 464.768 1058.28 468.433C1062.07 472.097 1063.96 477.78 1063.96 485.481L1063.96 647.022C1063.96 654.723 1062.07 660.406 1058.28 664.071C1054.49 667.735 1048.93 669.567 1041.6 669.567L740.879 669.567ZM753.921 424.74L861.243 424.74L861.243 392.693C861.243 383.004 858.541 375.458 853.138 370.055C847.734 364.651 840.25 361.95 830.686 361.95L784.292 361.95C774.727 361.95 767.274 364.651 761.933 370.055C756.592 375.458 753.921 383.004 753.921 392.693L753.921 424.74ZM921.238 424.74L1028.37 424.74L1028.37 392.693C1028.37 383.004 1025.7 375.458 1020.36 370.055C1015.02 364.651 1007.57 361.95 998.003 361.95L951.609 361.95C942.044 361.95 934.591 364.651 929.25 370.055C923.909 375.458 921.238 383.004 921.238 392.693L921.238 424.74ZM835.903 576.592C835.903 578.704 836.648 580.412 838.139 581.716C839.629 583.021 841.368 583.673 843.356 583.673L885.464 583.673L862.919 642.55C861.801 645.904 861.988 648.637 863.478 650.749C864.969 652.86 867.018 653.978 869.627 654.102C872.235 654.227 874.658 652.922 876.894 650.19L947.696 563.55C949.435 561.687 950.304 559.699 950.304 557.588C950.304 555.476 949.559 553.737 948.068 552.371C946.578 551.004 944.839 550.321 942.851 550.321L900.743 550.321L923.101 491.63C924.343 488.276 924.25 485.543 922.822 483.432C921.393 481.32 919.344 480.202 916.673 480.078C914.003 479.954 911.612 481.258 909.5 483.991L838.325 570.63C836.71 572.618 835.903 574.605 835.903 576.592Z" fill="#000000" opacity="1" stroke="none" vectornator:layerName="Текст 8"/>
</g>
</svg>
