<?xml version="1.0" encoding="UTF-8" standalone="no"?>
<!DOCTYPE svg PUBLIC "-//W3C//DTD SVG 1.1//EN" "http://www.w3.org/Graphics/SVG/1.1/DTD/svg11.dtd">
<!-- Created with Vectornator (http://vectornator.io/) -->
<svg height="100%" stroke-miterlimit="10" style="fill-rule:nonzero;clip-rule:evenodd;stroke-linecap:round;stroke-linejoin:round;" version="1.1" viewBox="0 0 1920 1080" width="100%" xml:space="preserve" xmlns="http://www.w3.org/2000/svg" xmlns:vectornator="http://vectornator.io" xmlns:xlink="http://www.w3.org/1999/xlink">
<defs/>
<g id="Слой-1" vectornator:layerName="Слой 1">
<path d="M1143.63 516.713C1159.54 516.713 1167.49 508.7 1167.49 492.673L1167.49 449.934C1167.49 429.633 1162.03 414.022 1151.11 403.1C1140.19 392.178 1124.46 386.716 1103.92 386.716L1061.36 386.716C1045.33 386.716 1037.32 394.671 1037.32 410.579C1037.32 418.296 1039.4 424.202 1043.55 428.298C1047.71 432.393 1053.64 434.441 1061.36 434.441L1098.4 434.441C1105.4 434.441 1110.75 436.192 1114.43 439.695C1118.11 443.197 1119.95 448.628 1119.95 455.989L1119.95 492.673C1119.95 508.7 1127.84 516.713 1143.63 516.713ZM869.927 747.858L912.666 747.858C928.693 747.858 936.706 739.963 936.706 724.173C936.706 716.457 934.629 710.55 930.473 706.455C926.318 702.359 920.382 700.311 912.666 700.311L875.448 700.311C868.443 700.311 863.131 698.56 859.51 695.058C855.889 691.555 854.078 686.065 854.078 678.586L854.078 641.902C854.078 625.875 846.124 617.861 830.216 617.861C814.308 617.861 806.353 625.875 806.353 641.902L806.353 684.64C806.353 705.06 811.844 720.701 822.826 731.564C833.807 742.426 849.508 747.858 869.927 747.858ZM1061.36 747.858L1103.92 747.858C1124.46 747.858 1140.19 742.426 1151.11 731.564C1162.03 720.701 1167.49 705.06 1167.49 684.64L1167.49 641.902C1167.49 625.875 1159.54 617.861 1143.63 617.861C1135.92 617.861 1130.04 619.939 1126 624.094C1121.97 628.249 1119.95 634.185 1119.95 641.902L1119.95 678.586C1119.95 686.065 1118.11 691.555 1114.43 695.058C1110.75 698.56 1105.4 700.311 1098.4 700.311L1061.36 700.311C1045.33 700.311 1037.32 708.265 1037.32 724.173C1037.32 739.963 1045.33 747.858 1061.36 747.858ZM830.216 516.713C837.933 516.713 843.839 514.635 847.935 510.48C852.03 506.325 854.078 500.389 854.078 492.673L854.078 455.989C854.078 448.628 855.889 443.197 859.51 439.695C863.131 436.192 868.443 434.441 875.448 434.441L912.666 434.441C928.693 434.441 936.706 426.487 936.706 410.579C936.706 394.671 928.693 386.716 912.666 386.716L869.927 386.716C849.508 386.716 833.807 392.178 822.826 403.1C811.844 414.022 806.353 429.633 806.353 449.934L806.353 492.673C806.353 508.7 814.308 516.713 830.216 516.713ZM906.611 640.833L919.433 640.833L919.433 493.741L906.611 493.741L906.611 640.833ZM935.282 640.833L959.322 640.833L959.322 493.741L935.282 493.741L935.282 640.833ZM969.651 640.833L984.609 640.833L984.609 493.741L969.651 493.741L969.651 640.833ZM997.965 640.833L1021.11 640.833L1021.11 493.741L997.965 493.741L997.965 640.833ZM1030.55 640.833L1049.07 640.833L1049.07 493.741L1030.55 493.741L1030.55 640.833ZM1055.84 640.833L1067.42 640.833L1067.42 493.741L1055.84 493.741L1055.84 640.833Z" fill="#000000" opacity="1" stroke="none" vectornator:layerName="Текст 2"/>
</g>
</svg>
