<?xml version="1.0" encoding="UTF-8" standalone="no"?>
<!DOCTYPE svg PUBLIC "-//W3C//DTD SVG 1.1//EN" "http://www.w3.org/Graphics/SVG/1.1/DTD/svg11.dtd">
<!-- Created with Vectornator (http://vectornator.io/) -->
<svg height="100%" stroke-miterlimit="10" style="fill-rule:nonzero;clip-rule:evenodd;stroke-linecap:round;stroke-linejoin:round;" version="1.1" viewBox="0 0 1920 1080" width="100%" xml:space="preserve" xmlns="http://www.w3.org/2000/svg" xmlns:vectornator="http://vectornator.io" xmlns:xlink="http://www.w3.org/1999/xlink">
<defs/>
<g id="Слой-1" vectornator:layerName="Слой 1">
<path d="M1088.24 658.442L992.227 658.442L992.227 719.11L1088.24 719.11C1096.23 719.11 1103.08 716.072 1108.79 709.997C1114.5 703.922 1117.35 696.848 1117.35 688.776C1117.35 680.458 1114.52 673.323 1108.85 667.371C1103.19 661.418 1096.32 658.442 1088.24 658.442ZM1087.75 500.044L798.114 500.044L798.114 560.835L1087.75 560.835C1095.99 560.835 1102.98 557.818 1108.73 551.783C1114.48 545.749 1117.35 538.655 1117.35 530.501C1117.35 522.102 1114.5 514.926 1108.79 508.973C1103.08 503.021 1096.07 500.044 1087.75 500.044ZM618.067 500.044C610.076 500.044 603.246 503.062 597.579 509.096C591.912 515.13 589.078 522.265 589.078 530.501C589.078 538.492 591.932 545.545 597.64 551.661C603.348 557.777 610.157 560.835 618.067 560.835L718.976 560.835L718.976 500.044L618.067 500.044ZM910.276 341.892L618.556 341.892C610.32 341.892 603.348 344.909 597.64 350.943C591.932 356.977 589.078 364.072 589.078 372.226C589.078 380.136 591.953 387.169 597.701 393.325C603.45 399.482 610.402 402.56 618.556 402.56L910.276 402.56L910.276 341.892ZM1088.24 341.892L990.637 341.892L990.637 402.56L1088.24 402.56C1096.23 402.56 1103.08 399.522 1108.79 393.447C1114.5 387.372 1117.35 380.299 1117.35 372.226C1117.35 363.908 1114.52 356.773 1108.85 350.821C1103.19 344.868 1096.32 341.892 1088.24 341.892ZM909.664 658.442L618.556 658.442C610.32 658.442 603.348 661.459 597.64 667.493C591.932 673.527 589.078 680.621 589.078 688.776C589.078 696.685 591.953 703.718 597.701 709.875C603.45 716.031 610.402 719.11 618.556 719.11L909.664 719.11L909.664 658.442ZM950.517 405.006C941.466 405.006 933.74 401.785 927.339 395.343C920.938 388.901 917.737 381.155 917.737 372.104C917.737 362.808 920.938 355 927.339 348.68C933.74 342.361 941.466 339.201 950.517 339.201C959.813 339.201 967.621 342.361 973.941 348.68C980.26 355 983.42 362.808 983.42 372.104C983.42 381.155 980.26 388.901 973.941 395.343C967.621 401.785 959.813 405.006 950.517 405.006ZM950.517 443.535C963.646 443.535 975.612 440.314 986.417 433.872C997.221 427.43 1005.82 418.807 1012.23 408.003C1018.63 397.198 1021.83 385.273 1021.83 372.226C1021.83 359.097 1018.63 347.131 1012.23 336.327C1005.82 325.522 997.221 316.899 986.417 310.457C975.612 304.015 963.646 300.794 950.517 300.794C937.471 300.794 925.545 304.015 914.74 310.457C903.936 316.899 895.292 325.522 888.81 336.327C882.327 347.131 879.086 359.097 879.086 372.226C879.086 385.273 882.327 397.198 888.81 408.003C895.292 418.807 903.936 427.43 914.74 433.872C925.545 440.314 937.471 443.535 950.517 443.535ZM758.973 563.403C749.84 563.403 742.073 560.203 735.672 553.802C729.271 547.4 726.07 539.634 726.07 530.501C726.07 521.123 729.271 513.295 735.672 507.016C742.073 500.738 749.84 497.598 758.973 497.598C768.269 497.598 776.056 500.738 782.335 507.016C788.614 513.295 791.753 521.123 791.753 530.501C791.753 539.634 788.614 547.4 782.335 553.802C776.056 560.203 768.269 563.403 758.973 563.403ZM758.973 601.932C771.938 601.932 783.823 598.691 794.628 592.208C805.432 585.726 814.076 577.082 820.558 566.278C827.041 555.473 830.282 543.548 830.282 530.501C830.282 517.454 827.061 505.528 820.619 494.724C814.178 483.919 805.554 475.296 794.75 468.854C783.945 462.412 772.02 459.191 758.973 459.191C745.845 459.191 733.899 462.412 723.135 468.854C712.371 475.296 703.768 483.919 697.326 494.724C690.885 505.528 687.664 517.454 687.664 530.501C687.664 543.548 690.885 555.473 697.326 566.278C703.768 577.082 712.371 585.726 723.135 592.208C733.899 598.691 745.845 601.932 758.973 601.932ZM950.517 721.678C941.466 721.678 933.74 718.478 927.339 712.077C920.938 705.675 917.737 697.908 917.737 688.776C917.737 679.48 920.938 671.692 927.339 665.414C933.74 659.135 941.466 655.995 950.517 655.995C959.813 655.995 967.621 659.135 973.941 665.414C980.26 671.692 983.42 679.48 983.42 688.776C983.42 697.908 980.26 705.675 973.941 712.077C967.621 718.478 959.813 721.678 950.517 721.678ZM950.517 760.085C963.646 760.085 975.612 756.864 986.417 750.422C997.221 743.98 1005.82 735.377 1012.23 724.614C1018.63 713.85 1021.83 701.904 1021.83 688.776C1021.83 675.729 1018.63 663.803 1012.23 652.999C1005.82 642.194 997.221 633.571 986.417 627.129C975.612 620.687 963.646 617.466 950.517 617.466C937.471 617.466 925.545 620.687 914.74 627.129C903.936 633.571 895.292 642.194 888.81 652.999C882.327 663.803 879.086 675.729 879.086 688.776C879.086 701.904 882.327 713.85 888.81 724.614C895.292 735.377 903.936 743.98 914.74 750.422C925.545 756.864 937.471 760.085 950.517 760.085Z" fill="#000000" opacity="1" stroke="none" vectornator:layerName="Текст 6"/>
</g>
</svg>
