<?xml version="1.0" encoding="UTF-8" standalone="no"?>
<!DOCTYPE svg PUBLIC "-//W3C//DTD SVG 1.1//EN" "http://www.w3.org/Graphics/SVG/1.1/DTD/svg11.dtd">
<!-- Created with Vectornator (http://vectornator.io/) -->
<svg height="100%" stroke-miterlimit="10" style="fill-rule:nonzero;clip-rule:evenodd;stroke-linecap:round;stroke-linejoin:round;" version="1.1" viewBox="0 0 1920 1080" width="100%" xml:space="preserve" xmlns="http://www.w3.org/2000/svg" xmlns:vectornator="http://vectornator.io" xmlns:xlink="http://www.w3.org/1999/xlink">
<defs/>
<g id="Слой-1" vectornator:layerName="Слой 1">
<path d="M837.193 689.017L1036.32 689.017C1059.71 689.017 1077.66 682.796 1090.17 670.355C1102.68 657.914 1108.93 640.099 1108.93 616.912L1108.93 416.868C1108.93 393.681 1102.68 375.849 1090.17 363.374C1077.66 350.899 1059.71 344.661 1036.32 344.661L837.193 344.661C813.802 344.661 795.852 350.882 783.343 363.323C770.833 375.765 764.579 393.613 764.579 416.868L764.579 616.912C764.579 640.099 770.833 657.914 783.343 670.355C795.852 682.796 813.802 689.017 837.193 689.017ZM843.498 634.506C835.498 634.506 829.43 632.523 825.294 628.557C821.158 624.59 819.09 618.37 819.09 609.895L819.09 423.886C819.09 415.411 821.158 409.173 825.294 405.173C829.43 401.173 835.498 399.172 843.498 399.172L1029.91 399.172C1037.91 399.172 1044.02 401.173 1048.22 405.173C1052.42 409.173 1054.53 415.411 1054.53 423.886L1054.53 609.895C1054.53 618.37 1052.42 624.59 1048.22 628.557C1044.02 632.523 1037.91 634.506 1029.91 634.506L843.498 634.506ZM874.72 600.131L998.895 600.131C1005.54 600.131 1010.78 598.199 1014.61 594.335C1018.44 590.47 1020.35 585.249 1020.35 578.673L1020.35 454.802C1020.35 448.226 1018.44 443.005 1014.61 439.14C1010.78 435.276 1005.54 433.344 998.895 433.344L874.72 433.344C868.075 433.344 862.821 435.276 858.956 439.14C855.092 443.005 853.159 448.226 853.159 454.802L853.159 578.673C853.159 585.249 855.092 590.47 858.956 594.335C862.821 598.199 868.075 600.131 874.72 600.131ZM896.077 563.926C891.67 563.926 889.466 561.791 889.466 557.519L889.466 476.058C889.466 471.718 891.67 469.549 896.077 469.549L977.437 469.549C981.912 469.549 984.149 471.718 984.149 476.058L984.149 557.519C984.149 561.791 981.912 563.926 977.437 563.926L896.077 563.926ZM852.956 399.172L893.636 399.172L893.636 311.202C893.636 305.439 891.67 300.608 887.737 296.71C883.805 292.811 878.957 290.862 873.194 290.862C867.431 290.862 862.618 292.811 858.753 296.71C854.888 300.608 852.956 305.439 852.956 311.202L852.956 399.172ZM916.417 399.172L957.097 399.172L957.097 311.202C957.097 305.439 955.148 300.608 951.249 296.71C947.351 292.811 942.52 290.862 936.757 290.862C930.994 290.862 926.163 292.811 922.265 296.71C918.366 300.608 916.417 305.439 916.417 311.202L916.417 399.172ZM979.979 399.172L1020.56 399.172L1020.56 311.202C1020.56 305.439 1018.61 300.608 1014.71 296.71C1010.81 292.811 1005.98 290.862 1000.22 290.862C994.455 290.862 989.641 292.811 985.776 296.71C981.912 300.608 979.979 305.439 979.979 311.202L979.979 399.172ZM1054.53 432.937L1054.53 473.617L1142.5 473.617C1148.26 473.617 1153.09 471.651 1156.99 467.718C1160.89 463.786 1162.84 458.938 1162.84 453.175C1162.84 447.412 1160.89 442.598 1156.99 438.734C1153.09 434.869 1148.26 432.937 1142.5 432.937L1054.53 432.937ZM1054.53 496.398L1054.53 536.976L1142.5 536.976C1148.26 536.976 1153.09 535.043 1156.99 531.179C1160.89 527.314 1162.84 522.5 1162.84 516.737C1162.84 510.975 1160.89 506.144 1156.99 502.245C1153.09 498.347 1148.26 496.398 1142.5 496.398L1054.53 496.398ZM1054.53 559.96L1054.53 600.538L1142.5 600.538C1148.26 600.538 1153.09 598.589 1156.99 594.69C1160.89 590.792 1162.84 585.961 1162.84 580.198C1162.84 574.435 1160.89 569.621 1156.99 565.757C1153.09 561.892 1148.26 559.96 1142.5 559.96L1054.53 559.96ZM1020.76 634.506L980.183 634.506L980.183 722.68C980.183 728.443 982.132 733.257 986.03 737.121C989.929 740.986 994.76 742.918 1000.52 742.918C1006.29 742.918 1011.1 740.986 1014.96 737.121C1018.83 733.257 1020.76 728.443 1020.76 722.68L1020.76 634.506ZM957.097 634.506L916.417 634.506L916.417 722.68C916.417 728.443 918.366 733.257 922.265 737.121C926.163 740.986 930.994 742.918 936.757 742.918C942.52 742.918 947.351 740.986 951.249 737.121C955.148 733.257 957.097 728.443 957.097 722.68L957.097 634.506ZM893.636 634.506L852.956 634.506L852.956 722.68C852.956 728.443 854.888 733.257 858.753 737.121C862.618 740.986 867.431 742.918 873.194 742.918C878.957 742.918 883.805 740.986 887.737 737.121C891.67 733.257 893.636 728.443 893.636 722.68L893.636 634.506ZM819.09 600.64L819.09 560.062L728.984 560.062C723.221 560.062 718.407 561.994 714.543 565.859C710.678 569.723 708.746 574.537 708.746 580.3C708.746 586.063 710.678 590.894 714.543 594.792C718.407 598.691 723.221 600.64 728.984 600.64L819.09 600.64ZM819.09 537.077L819.09 496.499L728.984 496.499C723.221 496.499 718.407 498.448 714.543 502.347C710.678 506.245 708.746 511.076 708.746 516.839C708.746 522.602 710.678 527.416 714.543 531.281C718.407 535.145 723.221 537.077 728.984 537.077L819.09 537.077ZM819.09 473.718L819.09 433.038L728.984 433.038C723.221 433.038 718.407 434.971 714.543 438.835C710.678 442.7 708.746 447.514 708.746 453.277C708.746 459.04 710.678 463.887 714.543 467.82C718.407 471.752 723.221 473.718 728.984 473.718L819.09 473.718Z" fill="#000000" opacity="1" stroke="none" vectornator:layerName="Текст 11"/>
</g>
</svg>
